<?xml version="1.0" encoding="UTF-8"?>
<svg id="Layer_1" data-name="Layer 1" xmlns="http://www.w3.org/2000/svg" width="200" height="200" version="1.1" viewBox="0 0 200 200">
  <defs>
    <style>
      .cls-1 {
        fill: none;
      }

      .cls-1, .cls-2, .cls-3 {
        stroke-width: 0px;
      }

      .cls-2 {
        fill: #e04403;
      }

      .cls-3 {
        fill: #fff;
      }
    </style>
  </defs>
  <path class="cls-1" d="M100,11.9C51.3,11.9,11.9,51.3,11.9,100s39.5,88.1,88.1,88.1,88.1-39.5,88.1-88.1S148.7,11.9,100,11.9ZM100,178.9c-43.5,0-78.9-35.4-78.9-78.9S56.5,21.1,100,21.1s78.9,35.4,78.9,78.9-35.4,78.9-78.9,78.9Z"/>
  <rect class="cls-2" x="86.8" y="86.8" width="26.4" height="26.4" transform="translate(-15.8 18.8) rotate(-9.9)"/>
  <path class="cls-2" d="M100,21.1c-43.5,0-78.9,35.4-78.9,78.9s35.4,78.9,78.9,78.9,78.9-35.4,78.9-78.9S143.5,21.1,100,21.1ZM158.7,121.8l-22.1,3.9,3.9,22.1c.9,5-2.5,9.8-7.5,10.7-.5,0-1.1.1-1.6.1-4.4,0-8.3-3.2-9.1-7.6l-3.9-22.1-26,4.6,3.9,22.1c.9,5-2.5,9.8-7.5,10.7-.5,0-1.1.1-1.6.1-4.4,0-8.3-3.2-9.1-7.6l-3.9-22.1-22.1,3.9c-.5,0-1.1.1-1.6.1-4.4,0-8.3-3.2-9.1-7.6-.9-5,2.5-9.8,7.5-10.7l22.1-3.9-4.6-26-22.1,3.9c-.5,0-1.1.1-1.6.1-4.4,0-8.3-3.2-9.1-7.6-.9-5,2.5-9.8,7.5-10.7l22.1-3.9-3.9-22.1c-.9-5,2.5-9.8,7.5-10.7,5-.9,9.8,2.5,10.7,7.5l3.9,22.1,26-4.6-3.9-22.1c-.9-5,2.5-9.8,7.5-10.7,5-.9,9.8,2.5,10.7,7.5l3.9,22.1,22.1-3.9c5-.9,9.8,2.5,10.7,7.5.9,5-2.5,9.8-7.5,10.7l-22.1,3.9,4.6,26,22.1-3.9c5-.9,9.8,2.5,10.7,7.5.9,5-2.5,9.8-7.5,10.7Z"/>
  <path class="cls-2" d="M100,2C45.9,2,2,45.9,2,100s43.9,98,98,98,98-43.9,98-98S154.1,2,100,2ZM100,188.1c-48.7,0-88.1-39.5-88.1-88.1S51.3,11.9,100,11.9s88.1,39.5,88.1,88.1-39.5,88.1-88.1,88.1Z"/>
  <path class="cls-3" d="M166.2,111.1c-.9-5-5.7-8.4-10.7-7.5l-22.1,3.9-4.6-26,22.1-3.9c5-.9,8.4-5.7,7.5-10.7-.9-5-5.7-8.4-10.7-7.5l-22.1,3.9-3.9-22.1c-.9-5-5.7-8.4-10.7-7.5-5,.9-8.4,5.7-7.5,10.7l3.9,22.1-26,4.6-3.9-22.1c-.9-5-5.7-8.4-10.7-7.5-5,.9-8.4,5.7-7.5,10.7l3.9,22.1-22.1,3.9c-5,.9-8.4,5.7-7.5,10.7.8,4.5,4.7,7.6,9.1,7.6s1.1,0,1.6-.1l22.1-3.9,4.6,26-22.1,3.9c-5,.9-8.4,5.7-7.5,10.7.8,4.5,4.7,7.6,9.1,7.6s1.1,0,1.6-.1l22.1-3.9,3.9,22.1c.8,4.5,4.7,7.6,9.1,7.6s1.1,0,1.6-.1c5-.9,8.4-5.7,7.5-10.7l-3.9-22.1,26-4.6,3.9,22.1c.8,4.5,4.7,7.6,9.1,7.6s1.1,0,1.6-.1c5-.9,8.4-5.7,7.5-10.7l-3.9-22.1,22.1-3.9c5-.9,8.4-5.7,7.5-10.7ZM89.3,115.3l-4.6-26,26-4.6,4.6,26-26,4.6Z"/>
</svg>